<svg width="24" height="24" viewBox="0 0 24 24" fill="none" xmlns="http://www.w3.org/2000/svg">
<g id="Group 988498">
<g id="Group 988495">
<g id="Subtract">
<mask id="path-1-inside-1_9992_547" fill="white">
<path d="M24 12L21.3382 8.81143L21.7091 4.59429L17.7709 3.65714L15.7091 0L12 1.66857L8.29091 0L6.22909 3.64571L2.29091 4.57143L2.66182 8.8L0 12L2.66182 15.1886L2.29091 19.4171L6.22909 20.3543L8.29091 24L12 22.32L15.7091 23.9886L17.7709 20.3429L21.7091 19.4057L21.3382 15.1886L24 12Z"/>
</mask>
<path d="M24 12L24.7677 12.6408L25.3026 12L24.7677 11.3592L24 12ZM21.3382 8.81143L20.342 8.72381L20.3058 9.13523L20.5705 9.45228L21.3382 8.81143ZM21.7091 4.59429L22.7052 4.6819L22.7809 3.82142L21.9406 3.62145L21.7091 4.59429ZM17.7709 3.65714L16.8998 4.14825L17.1144 4.52884L17.5394 4.62998L17.7709 3.65714ZM15.7091 0L16.5802 -0.491107L16.1317 -1.28664L15.2988 -0.911969L15.7091 0ZM12 1.66857L11.5897 2.58054L12 2.7651L12.4103 2.58054L12 1.66857ZM8.29091 0L8.70117 -0.911969L7.86943 -1.28613L7.42047 -0.492274L8.29091 0ZM6.22909 3.64571L6.45792 4.61918L6.88404 4.51902L7.09953 4.13799L6.22909 3.64571ZM2.29091 4.57143L2.06208 3.59796L1.21906 3.79612L1.29473 4.65881L2.29091 4.57143ZM2.66182 8.8L3.43061 9.4395L3.69398 9.12288L3.65799 8.71262L2.66182 8.8ZM0 12L-0.768794 11.3605L-1.30169 12.0011L-0.767667 12.6408L0 12ZM2.66182 15.1886L3.65799 15.276L3.69407 14.8647L3.42949 14.5477L2.66182 15.1886ZM2.29091 19.4171L1.29473 19.3298L1.21927 20.1901L2.05941 20.39L2.29091 19.4171ZM6.22909 20.3543L7.09953 19.862L6.88485 19.4824L6.46059 19.3815L6.22909 20.3543ZM8.29091 24L7.42047 24.4923L7.87059 25.2882L8.7035 24.9109L8.29091 24ZM12 22.32L12.4103 21.408L11.9986 21.2228L11.5874 21.4091L12 22.32ZM15.7091 23.9886L15.2988 24.9005L16.1306 25.2747L16.5795 24.4808L15.7091 23.9886ZM17.7709 20.3429L17.5394 19.37L17.1152 19.471L16.9005 19.8506L17.7709 20.3429ZM21.7091 19.4057L21.9406 20.3785L22.7809 20.1786L22.7052 19.3181L21.7091 19.4057ZM21.3382 15.1886L20.5705 14.5477L20.3058 14.8648L20.342 15.2762L21.3382 15.1886ZM24.7677 11.3592L22.1058 8.17058L20.5705 9.45228L23.2323 12.6408L24.7677 11.3592ZM22.3343 8.89904L22.7052 4.6819L20.7129 4.50667L20.342 8.72381L22.3343 8.89904ZM21.9406 3.62145L18.0024 2.68431L17.5394 4.62998L21.4776 5.56712L21.9406 3.62145ZM18.642 3.16604L16.5802 -0.491107L14.838 0.491107L16.8998 4.14825L18.642 3.16604ZM15.2988 -0.911969L11.5897 0.756602L12.4103 2.58054L16.1193 0.911969L15.2988 -0.911969ZM12.4103 0.756602L8.70117 -0.911969L7.88065 0.911969L11.5897 2.58054L12.4103 0.756602ZM7.42047 -0.492274L5.35865 3.15344L7.09953 4.13799L9.16135 0.492274L7.42047 -0.492274ZM6.00027 2.67225L2.06208 3.59796L2.51973 5.5449L6.45792 4.61918L6.00027 2.67225ZM1.29473 4.65881L1.66564 8.88738L3.65799 8.71262L3.28708 4.48405L1.29473 4.65881ZM1.89302 8.1605L-0.768794 11.3605L0.768794 12.6395L3.43061 9.4395L1.89302 8.1605ZM-0.767667 12.6408L1.89415 15.8294L3.42949 14.5477L0.767667 11.3592L-0.767667 12.6408ZM1.66564 15.1012L1.29473 19.3298L3.28708 19.5045L3.65799 15.276L1.66564 15.1012ZM2.05941 20.39L5.99759 21.3271L6.46059 19.3815L2.52241 18.4443L2.05941 20.39ZM5.35865 20.8466L7.42047 24.4923L9.16135 23.5077L7.09953 19.862L5.35865 20.8466ZM8.7035 24.9109L12.4126 23.2309L11.5874 21.4091L7.87832 23.0891L8.7035 24.9109ZM11.5897 23.232L15.2988 24.9005L16.1193 23.0766L12.4103 21.408L11.5897 23.232ZM16.5795 24.4808L18.6414 20.8351L16.9005 19.8506L14.8387 23.4963L16.5795 24.4808ZM18.0024 21.3157L21.9406 20.3785L21.4776 18.4329L17.5394 19.37L18.0024 21.3157ZM22.7052 19.3181L22.3343 15.101L20.342 15.2762L20.7129 19.4933L22.7052 19.3181ZM22.1058 15.8294L24.7677 12.6408L23.2323 11.3592L20.5705 14.5477L22.1058 15.8294Z" fill="#464646" mask="url(#path-1-inside-1_9992_547)"/>
</g>
</g>
<path id="Vector" d="M9.75 8C8.785 8 8 8.785 8 9.75C8 10.715 8.785 11.5 9.75 11.5C10.715 11.5 11.5 10.715 11.5 9.75C11.5 8.785 10.715 8 9.75 8ZM9.75 10.5C9.335 10.5 9 10.165 9 9.75C9 9.335 9.335 9 9.75 9C10.165 9 10.5 9.335 10.5 9.75C10.5 10.165 10.165 10.5 9.75 10.5ZM14.25 12.5C13.285 12.5 12.5 13.285 12.5 14.25C12.5 15.215 13.285 16 14.25 16C15.215 16 16 15.215 16 14.25C16 13.285 15.215 12.5 14.25 12.5ZM14.25 15C13.835 15 13.5 14.665 13.5 14.25C13.5 13.835 13.835 13.5 14.25 13.5C14.665 13.5 15 13.835 15 14.25C15 14.665 14.665 15 14.25 15ZM8.705 16L8 15.295L15.295 8L16 8.705L8.705 16Z" fill="#464646"/>
</g>
</svg>
