<?xml version="1.0" standalone="no"?>
<!DOCTYPE svg PUBLIC "-//W3C//DTD SVG 20010904//EN"
 "http://www.w3.org/TR/2001/REC-SVG-20010904/DTD/svg10.dtd">
<svg version="1.0" xmlns="http://www.w3.org/2000/svg"
 width="423.000000pt" height="340.000000pt" viewBox="0 0 423.000000 340.000000"
 preserveAspectRatio="xMidYMid meet">

<g transform="translate(0.000000,340.000000) scale(0.100000,-0.100000)"
fill="#000000" stroke="none">
<path d="M3086 3193 c-95 -30 -106 -36 -90 -47 11 -7 58 -36 105 -64 l86 -52
47 16 c26 9 46 21 44 28 -24 86 -54 156 -67 155 -9 -1 -65 -17 -125 -36z"/>
<path d="M2632 3047 l-92 -32 99 -60 c68 -40 96 -62 88 -68 -15 -10 -1 -7 127
34 54 17 94 34 90 38 -24 21 -195 121 -206 120 -7 0 -55 -15 -106 -32z"/>
<path d="M2213 2911 l-111 -37 98 -59 c54 -32 97 -62 94 -66 -2 -4 -19 -11
-37 -15 -17 -4 -27 -9 -22 -11 6 -1 75 19 155 46 80 27 139 50 131 50 -24 1
-201 113 -195 122 3 5 4 9 2 8 -2 0 -53 -18 -115 -38z"/>
<path d="M1760 2766 c-109 -37 -114 -22 37 -114 l83 -51 112 39 c62 21 104 39
93 39 -11 1 -64 28 -118 61 -53 33 -101 59 -105 59 -4 -1 -50 -16 -102 -33z"/>
<path d="M2155 2700 c-13 -6 -15 -9 -5 -9 8 0 22 4 30 9 18 12 2 12 -25 0z"/>
<path d="M1548 2693 c7 -3 16 -2 19 1 4 3 -2 6 -13 5 -11 0 -14 -3 -6 -6z"/>
<path d="M1240 2598 c-118 -38 -227 -75 -241 -81 l-26 -12 14 -70 c12 -56 15
-260 20 -1037 l5 -968 1179 0 1179 0 0 961 0 960 -33 -3 c-28 -3 -45 -17 -113
-98 l-80 -95 -127 -3 c-70 -1 -127 0 -127 4 0 3 34 45 75 93 41 49 75 91 75
95 0 3 -46 6 -102 5 l-103 0 -80 -100 -80 -99 -122 0 c-73 0 -123 4 -123 10 0
5 13 24 28 42 15 18 50 59 76 91 l48 57 -108 -1 -109 0 -78 -100 -79 -99 -124
0 c-68 0 -124 4 -124 8 0 4 31 45 69 90 38 45 72 86 76 92 4 6 -30 10 -97 10
l-104 0 -83 -100 -82 -100 -125 0 c-68 0 -124 3 -124 8 0 4 34 47 75 95 41 49
75 90 75 93 0 3 -82 4 -181 4 -171 -2 -183 0 -202 19 -17 17 -18 21 -6 26 8 3
103 35 210 70 107 36 187 65 179 65 -12 0 -163 93 -190 117 -2 2 2 8 10 13 27
17 -3 9 -220 -62z m-150 -153 c16 -19 6 -45 -19 -45 -23 0 -35 28 -20 46 15
18 24 18 39 -1z m8 -203 c4 -28 -24 -40 -45 -19 -14 13 -14 19 -3 32 18 22 44
15 48 -13z m170 0 c4 -28 -24 -40 -45 -19 -14 13 -14 19 -3 32 18 22 44 15 48
-13z m2017 -166 c23 -34 15 -75 -17 -99 -64 -48 -135 45 -81 106 24 26 79 22
98 -7z m-1817 -314 c5 -32 -17 -104 -31 -99 -16 5 -21 66 -7 101 11 31 33 30
38 -2z m-172 -48 c9 -24 14 -47 11 -50 -22 -22 -73 60 -62 97 9 28 29 10 51
-47z m342 -51 c-5 -25 -69 -66 -82 -53 -8 8 -2 20 22 41 36 33 65 38 60 12z
m-258 -23 c0 -5 -16 -28 -36 -50 -59 -65 -60 -154 -1 -190 63 -39 134 -15 163
56 20 48 17 72 -11 100 -19 19 -31 23 -48 18 -38 -11 -57 -35 -57 -71 0 -43
25 -45 34 -2 5 25 10 30 28 27 54 -7 18 -98 -39 -98 -81 0 -83 123 -3 165 79
41 150 -10 150 -108 0 -147 -230 -213 -296 -86 -32 64 -6 182 51 227 29 23 65
29 65 12z m-160 -76 c25 -24 -2 -38 -42 -21 -38 16 -53 31 -43 46 7 12 63 -5
85 -25z m688 -139 c33 -39 29 -55 -17 -55 -22 0 -44 6 -51 15 -18 22 -62 20
-58 -2 2 -11 22 -23 56 -33 71 -20 102 -49 102 -93 0 -70 -72 -115 -159 -101
-48 8 -91 46 -91 80 0 21 5 24 39 24 31 0 41 -4 46 -20 9 -27 52 -37 72 -17
23 23 3 43 -61 61 -29 9 -61 25 -71 36 -25 28 -23 75 5 105 27 29 49 35 115
29 38 -2 55 -9 73 -29z m192 -80 c0 -96 2 -105 21 -116 16 -8 28 -8 45 0 23
10 24 15 24 116 l0 105 45 0 45 0 0 -105 c0 -153 -27 -191 -136 -189 -109 1
-134 36 -134 189 l0 105 45 0 45 0 0 -105z m495 80 c36 -35 33 -79 -6 -116
-17 -16 -26 -29 -20 -29 8 0 46 -61 69 -112 2 -5 -19 -8 -47 -8 l-51 0 -26 53
c-44 87 -64 89 -64 7 l0 -60 -45 0 -45 0 0 145 0 145 105 0 c99 0 107 -2 130
-25z m320 -107 c27 -73 50 -139 53 -145 3 -9 -9 -13 -42 -13 -40 0 -46 3 -52
25 -6 22 -11 25 -55 25 -44 0 -51 -3 -59 -25 -8 -21 -16 -25 -54 -25 l-44 0
49 133 c27 72 51 138 54 145 3 7 23 12 53 12 l49 0 48 -132z m315 25 c0 -125
-9 -150 -63 -176 -51 -26 -108 -16 -142 25 -37 43 -33 64 13 71 20 4 38 3 40
-2 1 -4 9 -17 16 -27 12 -15 16 -16 30 -5 13 11 16 34 16 117 l0 104 45 0 45
0 0 -107z m-2007 41 c-7 -19 -60 -47 -73 -39 -14 9 -3 23 33 45 33 21 49 18
40 -6z m358 -98 c18 -35 21 -48 12 -57 -10 -10 -17 -9 -31 4 -29 26 -56 82
-49 101 10 26 40 5 68 -48z m-256 24 c7 -12 -28 -94 -44 -104 -21 -14 -23 23
-2 68 19 45 34 56 46 36z m116 -27 c13 -35 2 -103 -17 -103 -10 0 -14 15 -14
58 0 52 5 72 17 72 2 0 8 -12 14 -27z m1789 -193 c0 -7 -352 -10 -1035 -10
-683 0 -1035 3 -1035 10 0 7 352 10 1035 10 683 0 1035 -3 1035 -10z m-2012
-57 c-10 -2 -28 -2 -40 0 -13 2 -5 4 17 4 22 1 32 -1 23 -4z m170 0 c-10 -2
-28 -2 -40 0 -13 2 -5 4 17 4 22 1 32 -1 23 -4z m160 0 c-10 -2 -28 -2 -40 0
-13 2 -5 4 17 4 22 1 32 -1 23 -4z m170 0 c-10 -2 -28 -2 -40 0 -13 2 -5 4 17
4 22 1 32 -1 23 -4z m165 0 c-13 -2 -33 -2 -45 0 -13 2 -3 4 22 4 25 0 35 -2
23 -4z m165 0 c-10 -2 -28 -2 -40 0 -13 2 -5 4 17 4 22 1 32 -1 23 -4z m170 0
c-10 -2 -28 -2 -40 0 -13 2 -5 4 17 4 22 1 32 -1 23 -4z m165 0 c-13 -2 -33
-2 -45 0 -13 2 -3 4 22 4 25 0 35 -2 23 -4z m165 0 c-10 -2 -28 -2 -40 0 -13
2 -5 4 17 4 22 1 32 -1 23 -4z m170 0 c-10 -2 -28 -2 -40 0 -13 2 -5 4 17 4
22 1 32 -1 23 -4z m160 0 c-10 -2 -28 -2 -40 0 -13 2 -5 4 17 4 22 1 32 -1 23
-4z m170 0 c-10 -2 -28 -2 -40 0 -13 2 -5 4 17 4 22 1 32 -1 23 -4z m165 0
c-13 -2 -33 -2 -45 0 -13 2 -3 4 22 4 25 0 35 -2 23 -4z m-1919 -93 c33 -12
53 -48 31 -56 -9 -4 -24 1 -35 11 -40 36 -84 -15 -64 -74 11 -30 45 -39 64
-16 14 17 50 21 50 5 0 -18 -48 -60 -69 -60 -33 0 -68 21 -80 47 -25 55 -5
124 43 143 28 12 31 12 60 0z m256 -95 c0 -88 -1 -95 -20 -95 -19 0 -20 7 -20
95 0 88 1 95 20 95 19 0 20 -7 20 -95z m249 43 l31 -53 0 53 c0 45 3 52 20 52
19 0 20 -7 20 -96 0 -85 -2 -95 -17 -92 -10 2 -32 25 -49 51 -17 26 -33 49
-35 52 -2 2 -4 -20 -4 -48 0 -41 -4 -52 -17 -55 -16 -3 -18 6 -18 92 0 88 2
96 19 96 13 0 30 -18 50 -52z m339 35 c2 -9 -11 -13 -47 -13 -44 0 -51 -3 -51
-20 0 -17 7 -20 46 -20 38 0 45 -3 42 -17 -3 -14 -13 -18 -46 -18 -37 0 -42
-3 -42 -22 0 -21 5 -23 51 -23 43 0 50 -3 47 -17 -3 -15 -16 -19 -71 -21 l-67
-3 0 96 0 96 67 -3 c42 -2 68 -8 71 -15z m256 -5 c9 -12 16 -30 16 -39 0 -23
-47 -59 -76 -59 -18 0 -23 -6 -26 -32 -2 -25 -8 -33 -23 -33 -18 0 -20 8 -23
79 -2 44 -1 85 2 93 4 9 24 13 60 13 45 0 58 -4 70 -22z m186 -53 l0 -75 46 0
c38 0 45 -3 42 -17 -3 -15 -14 -18 -63 -18 l-60 0 -3 93 c-3 87 -2 92 18 92
18 0 20 -6 20 -75z m360 61 c0 -11 -14 -16 -47 -18 -36 -2 -49 -7 -51 -20 -3
-15 4 -18 42 -18 39 0 46 -3 46 -20 0 -17 -7 -20 -45 -20 -38 0 -45 -3 -45
-20 0 -17 7 -20 50 -20 44 0 50 -3 50 -20 0 -19 -5 -21 -67 -18 l-68 3 -3 93
-3 92 71 0 c54 0 70 -3 70 -14z m177 -12 l19 -25 14 25 c8 17 22 26 37 26 l24
0 -27 -45 -26 -46 26 -39 c14 -22 26 -44 26 -50 0 -22 -39 -8 -58 21 l-19 31
-22 -31 c-12 -17 -31 -31 -42 -31 -25 0 -24 7 10 59 l30 44 -25 36 c-13 20
-24 39 -24 43 0 18 40 6 57 -18z m-1899 -261 c-10 -2 -28 -2 -40 0 -13 2 -5 4
17 4 22 1 32 -1 23 -4z m170 0 c-10 -2 -28 -2 -40 0 -13 2 -5 4 17 4 22 1 32
-1 23 -4z m160 0 c-10 -2 -28 -2 -40 0 -13 2 -5 4 17 4 22 1 32 -1 23 -4z
m170 0 c-10 -2 -28 -2 -40 0 -13 2 -5 4 17 4 22 1 32 -1 23 -4z m165 0 c-13
-2 -33 -2 -45 0 -13 2 -3 4 22 4 25 0 35 -2 23 -4z m165 0 c-10 -2 -28 -2 -40
0 -13 2 -5 4 17 4 22 1 32 -1 23 -4z m170 0 c-10 -2 -28 -2 -40 0 -13 2 -5 4
17 4 22 1 32 -1 23 -4z m165 0 c-13 -2 -33 -2 -45 0 -13 2 -3 4 22 4 25 0 35
-2 23 -4z m165 0 c-10 -2 -28 -2 -40 0 -13 2 -5 4 17 4 22 1 32 -1 23 -4z
m170 0 c-10 -2 -28 -2 -40 0 -13 2 -5 4 17 4 22 1 32 -1 23 -4z m160 0 c-10
-2 -28 -2 -40 0 -13 2 -5 4 17 4 22 1 32 -1 23 -4z m170 0 c-10 -2 -28 -2 -40
0 -13 2 -5 4 17 4 22 1 32 -1 23 -4z m165 0 c-13 -2 -33 -2 -45 0 -13 2 -3 4
22 4 25 0 35 -2 23 -4z m17 -43 c0 -7 -352 -10 -1035 -10 -683 0 -1035 3
-1035 10 0 7 352 10 1035 10 683 0 1035 -3 1035 -10z"/>
<path d="M3196 2074 c-19 -18 -21 -65 -4 -82 17 -17 64 -15 82 4 21 21 20 57
-2 77 -23 21 -56 22 -76 1z m59 -41 c0 -38 -3 -40 -21 -15 -13 16 -13 16 -14
0 0 -35 -20 -17 -20 18 0 33 2 35 28 32 23 -3 27 -7 27 -35z"/>
<path d="M3220 2050 c0 -5 7 -10 16 -10 8 0 12 5 9 10 -3 6 -10 10 -16 10 -5
0 -9 -4 -9 -10z"/>
<path d="M2450 1360 c0 -25 4 -30 23 -30 33 0 62 23 54 44 -4 11 -18 16 -42
16 -32 0 -35 -2 -35 -30z"/>
<path d="M2801 1326 c-14 -59 -15 -56 19 -56 l29 0 -14 46 c-7 25 -16 48 -18
50 -2 3 -10 -15 -16 -40z"/>
<path d="M2310 886 c0 -21 5 -26 26 -26 21 0 25 4 22 23 -2 14 -11 23 -25 25
-19 3 -23 -1 -23 -22z"/>
<path d="M1718 2553 c7 -3 16 -2 19 1 4 3 -2 6 -13 5 -11 0 -14 -3 -6 -6z"/>
</g>
</svg>
